<svg version="1.1" xmlns="http://www.w3.org/2000/svg" xmlns:xlink="http://www.w3.org/1999/xlink"
    x="0px" y="0px" viewBox="43.97 15.25 114.05 172.05">
    <path fill="#151440" opacity="1.000000" stroke="none"
        d=" M111.065613,173.107605   C108.221886,177.441177 105.470444,181.407272 102.914017,185.495316   C101.602524,187.592545 100.782288,188.059586 99.198143,185.657944   C81.156952,158.306595 63.061676,130.990814 44.910137,103.712570   C43.711601,101.911400 43.673645,100.645546 44.876469,98.837685   C63.026657,71.557785 81.127296,44.244801 99.168098,16.892447   C100.701416,14.567732 101.468819,14.831270 102.876587,16.963972   C120.927452,44.310299 139.005417,71.639015 157.200485,98.889420   C158.851135,101.361572 157.679367,102.773308 156.471161,104.592308   C141.378418,127.314957 126.311897,150.055008 111.065613,173.107605  z" />
    <path fill="#FAFAFB" opacity="1.000000" stroke="none"
        d=" M133.754868,86.728546   C126.185287,97.592567 116.194069,100.482346 103.505524,99.586227   C87.767647,98.474762 71.891571,99.319946 56.075195,99.319939   C54.461582,99.319939 52.847969,99.319946 50.215401,99.319946   C67.361572,73.442085 83.992729,48.341496 100.984840,22.696144   C104.824722,28.453829 108.311668,33.651848 111.767578,38.870422   C119.569870,50.652241 127.351318,62.447872 135.152237,74.230606   C139.576797,80.913597 139.586578,80.907127 133.754868,86.728546  z" />
    <path fill="#F7F7F8" opacity="1.000000" stroke="none"
        d=" M109.067635,152.268127   C110.045937,149.433289 114.176216,147.871231 112.232201,144.823303   C110.208862,141.650970 107.300270,139.439926 102.734802,139.873352   C97.123772,140.406052 91.423668,140.000488 84.826714,140.000488   C87.404388,143.884079 89.649529,147.261917 91.889832,150.642960   C96.458031,157.537262 96.456955,157.537979 90.444603,163.925964   C77.204277,143.946411 63.989395,124.005241 50.727226,103.992729   C58.081310,101.789635 59.948906,102.433197 63.877796,108.372963   C68.283546,115.033646 72.746941,121.657753 77.042747,128.388718   C78.432091,130.565643 79.947891,131.791382 82.678123,131.477600   C84.815720,131.231903 87.032753,131.200226 89.165451,131.466415   C103.161209,133.213150 115.520493,129.641296 127.106667,121.518188   C131.925797,118.139465 134.944351,113.780128 137.465927,109.097275   C140.644196,103.194923 144.919312,101.900902 150.883713,103.501678   C143.788177,118.691322 133.565628,130.737228 117.406975,136.114639   C117.608124,137.337662 117.554260,137.706543 117.713089,137.875626   C124.224106,144.807022 124.229034,144.806396 118.899384,152.856155   C116.513351,156.459961 114.114937,160.055573 111.716095,163.663971   C106.107925,158.840149 105.735512,157.356613 109.067635,152.268127  z" />
    <path fill="#F5F5F7" opacity="1.000000" stroke="none"
        d=" M99.887146,104.811554   C104.070969,105.534439 106.891396,111.006866 105.022041,114.115936   C104.337517,115.254410 103.514053,116.312355 102.869797,117.471420   C101.569901,119.810020 100.799194,119.326530 99.058334,117.521027   C94.655380,112.954567 96.086296,109.079773 99.887146,104.811554  z" />
    <path fill="#F7F7F8" opacity="1.000000" stroke="none"
        d=" M137.012848,92.301674   C144.352295,89.020622 146.639404,90.115120 150.858734,98.613510   C142.645737,100.568871 142.336014,100.434860 137.012848,92.301674  z" />
    <path fill="#F1F1F3" opacity="1.000000" stroke="none"
        d=" M102.460358,166.613449   C106.330139,170.440598 106.017220,173.882095 102.669182,177.523254   C101.428978,178.872055 100.968956,179.636581 99.468864,177.708008   C95.874512,173.087021 95.923576,170.008942 100.033386,165.837250   C101.175102,164.678345 101.679207,165.410355 102.460358,166.613449  z" />
    <path fill="#100F3D" opacity="1.000000" stroke="none"
        d=" M110.129990,51.885590   C115.742706,60.367512 121.071823,68.606613 126.661140,76.665237   C128.327835,79.068268 127.877251,80.257118 126.138992,82.499634   C120.905853,89.250900 114.586929,91.634972 105.974220,91.120605   C93.081070,90.350616 80.107903,90.920502 67.300247,90.920502   C66.520721,89.185135 67.703712,88.390839 68.279602,87.517776   C78.350304,72.250175 88.525200,57.051048 98.540329,41.747307   C100.338409,38.999737 101.384430,37.982178 103.374039,41.571354   C105.302750,45.050659 107.734932,48.250881 110.129990,51.885590  z" />
</svg>